<svg width="126" height="126" viewBox="0 0 126 126" fill="none" xmlns="http://www.w3.org/2000/svg">
<circle cx="63" cy="63" r="63" fill="white" fill-opacity="0.9"/>
<path d="M51.061 34.296C49.225 32.568 46.745 32.568 44.907 34.296L13 63.001L44.906 91.704C46.744 93.433 49.224 93.433 51.06 91.704C52.898 89.974 52.898 87.17 51.06 85.441L26.289 63.001L51.061 40.56C52.898 38.832 52.898 36.028 51.061 34.296ZM81.094 34.296C79.256 32.568 76.778 32.568 74.94 34.296C73.102 36.027 73.202 38.831 75.04 40.56L99.711 63.001L75.039 85.441C73.201 87.17 73.101 89.973 74.939 91.704C76.777 93.433 79.255 93.433 81.093 91.704L113 63.001L81.094 34.296Z" fill="#030104"/>
</svg>
