<svg width="24" height="24" viewBox="0 0 24 24" fill="none" xmlns="http://www.w3.org/2000/svg">
<path d="M13.2602 1.88012C13.2923 1.68382 13.401 1.50829 13.5624 1.39206C13.7239 1.27582 13.9248 1.22837 14.1212 1.26012C14.1472 1.26512 14.2282 1.28012 14.2712 1.29012C14.3562 1.30912 14.4752 1.33812 14.6232 1.38112C14.9202 1.46812 15.3352 1.61112 15.8332 1.83812C16.8292 2.29512 18.1542 3.09412 19.5302 4.47012C20.9062 5.84612 21.7052 7.17112 22.1622 8.16812C22.3902 8.66512 22.5322 9.08012 22.6192 9.37712C22.6631 9.52716 22.7008 9.67896 22.7322 9.83212L22.7372 9.86212C22.7704 10.0603 22.7243 10.2636 22.6088 10.4281C22.4934 10.5926 22.3178 10.705 22.1202 10.7411C21.9244 10.7729 21.7239 10.7258 21.5628 10.6102C21.4016 10.4946 21.2928 10.3198 21.2602 10.1241C21.2372 10.0141 21.2099 9.90498 21.1782 9.79712C21.076 9.45369 20.949 9.11814 20.7982 8.79312C20.4082 7.94312 19.7082 6.76812 18.4702 5.53112C17.2322 4.29312 16.0582 3.59112 15.2072 3.20112C14.8825 3.05034 14.5473 2.92334 14.2042 2.82112C14.0989 2.79144 13.9929 2.76476 13.8862 2.74112C13.6899 2.70841 13.5144 2.59997 13.3973 2.43913C13.2802 2.27829 13.231 2.07791 13.2602 1.88112" fill="#88BD6F"/>
<path fill-rule="evenodd" clip-rule="evenodd" d="M13.4861 5.33018C13.5407 5.13898 13.6691 4.97732 13.8429 4.88074C14.0168 4.78417 14.2219 4.76059 14.4131 4.81518H14.4161L14.4191 4.81718L14.4271 4.81918L14.4471 4.82518C14.4621 4.83018 14.4811 4.83618 14.5031 4.84518C14.5629 4.86593 14.622 4.88894 14.6801 4.91418C14.8261 4.97618 15.0251 5.07318 15.2701 5.21718C15.7601 5.50718 16.4271 5.98818 17.2121 6.77318C17.9971 7.55818 18.4781 8.22618 18.7681 8.71618C18.9131 8.96018 19.0091 9.15918 19.0721 9.30618C19.1047 9.38258 19.134 9.46031 19.1601 9.53918L19.1671 9.55918L19.1691 9.56618V9.56918L19.1701 9.57118C19.2234 9.76114 19.1996 9.96545 19.1041 10.138C19.0085 10.3106 18.8487 10.4386 18.6595 10.4943C18.4702 10.5499 18.2666 10.5287 18.0928 10.4353C17.919 10.3419 17.7891 10.1838 17.7311 9.99518L17.7281 9.98418C17.6578 9.81003 17.5742 9.64153 17.4781 9.48018C17.2541 9.10318 16.8521 8.53418 16.1521 7.83418C15.4521 7.13418 14.8821 6.73118 14.5061 6.50818C14.3447 6.41204 14.1762 6.32846 14.0021 6.25818L13.9911 6.25418C13.8024 6.19738 13.6437 6.06861 13.5492 5.8957C13.4547 5.7228 13.432 5.51965 13.4861 5.33018ZM5.00708 4.40718C6.68708 2.72718 9.52308 2.85518 10.6931 4.95118L11.3421 6.11418C12.1051 7.48318 11.7801 9.21018 10.6621 10.3422C10.5962 10.442 10.5601 10.5586 10.5581 10.6782C10.5451 10.9342 10.6361 11.5272 11.5551 12.4452C12.4731 13.3632 13.0651 13.4552 13.3221 13.4422C13.4419 13.4406 13.5588 13.4049 13.6591 13.3392C14.7901 12.2202 16.5181 11.8952 17.8861 12.6592L19.0491 13.3082C21.1451 14.4782 21.2731 17.3132 19.5931 18.9932C18.6941 19.8912 17.5001 20.6902 16.0951 20.7432C14.0151 20.8222 10.5591 20.2852 7.13708 16.8632C3.71608 13.4412 3.17808 9.98618 3.25708 7.90518C3.31008 6.50118 4.10908 5.30518 5.00708 4.40718ZM9.38308 5.68218C8.78308 4.60918 7.17308 4.36218 6.06808 5.46818C5.29308 6.24318 4.78808 7.09818 4.75608 7.96218C4.69008 9.69718 5.11908 12.7222 8.19808 15.8022C11.2781 18.8822 14.3031 19.3102 16.0381 19.2442C16.9011 19.2122 17.7581 18.7072 18.5321 17.9322C19.6381 16.8262 19.3921 15.2172 18.3181 14.6182L17.1551 13.9682C16.4321 13.5652 15.4151 13.7032 14.7021 14.4162C14.6321 14.4862 14.1861 14.9022 13.3951 14.9402C12.5851 14.9802 11.6041 14.6162 10.4951 13.5062C9.38408 12.3962 9.02008 11.4152 9.06008 10.6042C9.09808 9.81318 9.51508 9.36718 9.58408 9.29818C10.2981 8.58418 10.4351 7.56818 10.0321 6.84518L9.38308 5.68218Z" fill="#88BD6F"/>
</svg>
