<svg width="24" height="24" viewBox="0 0 24 24" fill="none" xmlns="http://www.w3.org/2000/svg">
<path d="M15.5 14.5C15.5 14.7652 15.3946 15.0196 15.2071 15.2071C15.0196 15.3946 14.7652 15.5 14.5 15.5C14.2348 15.5 13.9804 15.3946 13.7929 15.2071C13.6054 15.0196 13.5 14.7652 13.5 14.5C13.5 14.2348 13.6054 13.9804 13.7929 13.7929C13.9804 13.6054 14.2348 13.5 14.5 13.5C14.7652 13.5 15.0196 13.6054 15.2071 13.7929C15.3946 13.9804 15.5 14.2348 15.5 14.5ZM10.5 9.5C10.5 9.76522 10.3946 10.0196 10.2071 10.2071C10.0196 10.3946 9.76522 10.5 9.5 10.5C9.23478 10.5 8.98043 10.3946 8.79289 10.2071C8.60536 10.0196 8.5 9.76522 8.5 9.5C8.5 9.23478 8.60536 8.98043 8.79289 8.79289C8.98043 8.60536 9.23478 8.5 9.5 8.5C9.76522 8.5 10.0196 8.60536 10.2071 8.79289C10.3946 8.98043 10.5 9.23478 10.5 9.5Z" fill="#88BD6F"/>
<path fill-rule="evenodd" clip-rule="evenodd" d="M15.5308 8.46983C15.6713 8.61045 15.7502 8.80108 15.7502 8.99983C15.7502 9.19858 15.6713 9.3892 15.5308 9.52983L9.53082 15.5298C9.38865 15.6623 9.2006 15.7344 9.0063 15.731C8.812 15.7276 8.62662 15.6489 8.4892 15.5114C8.35179 15.374 8.27308 15.1887 8.26965 14.9944C8.26622 14.8 8.33834 14.612 8.47082 14.4698L14.4708 8.46983C14.6114 8.32938 14.8021 8.25049 15.0008 8.25049C15.1996 8.25049 15.3902 8.32938 15.5308 8.46983Z" fill="#88BD6F"/>
<path fill-rule="evenodd" clip-rule="evenodd" d="M11.943 1.25H12.057C14.366 1.25 16.175 1.25 17.587 1.44C19.031 1.634 20.171 2.04 21.066 2.934C21.961 3.829 22.366 4.969 22.56 6.414C22.75 7.825 22.75 9.634 22.75 11.943V12.057C22.75 14.366 22.75 16.175 22.56 17.587C22.366 19.031 21.96 20.171 21.066 21.066C20.171 21.961 19.031 22.366 17.586 22.56C16.175 22.75 14.366 22.75 12.057 22.75H11.943C9.634 22.75 7.825 22.75 6.413 22.56C4.969 22.366 3.829 21.96 2.934 21.066C2.039 20.171 1.634 19.031 1.44 17.586C1.25 16.175 1.25 14.366 1.25 12.057V11.943C1.25 9.634 1.25 7.825 1.44 6.413C1.634 4.969 2.04 3.829 2.934 2.934C3.829 2.039 4.969 1.634 6.414 1.44C7.825 1.25 9.634 1.25 11.943 1.25ZM6.613 2.926C5.335 3.098 4.564 3.426 3.995 3.995C3.425 4.565 3.098 5.335 2.926 6.614C2.752 7.914 2.75 9.622 2.75 12C2.75 14.378 2.752 16.086 2.926 17.386C3.098 18.665 3.426 19.436 3.995 20.006C4.565 20.575 5.335 20.902 6.614 21.074C7.914 21.248 9.622 21.25 12 21.25C14.378 21.25 16.086 21.248 17.386 21.074C18.665 20.902 19.436 20.574 20.006 20.005C20.575 19.435 20.902 18.665 21.074 17.386C21.248 16.086 21.25 14.378 21.25 12C21.25 9.622 21.248 7.914 21.074 6.614C20.902 5.335 20.574 4.564 20.005 3.994C19.435 3.425 18.665 3.098 17.386 2.926C16.086 2.752 14.378 2.75 12 2.75C9.622 2.75 7.913 2.752 6.613 2.926Z" fill="#88BD6F"/>
</svg>
