<svg width="48" height="48" viewBox="0 0 48 48" fill="none" xmlns="http://www.w3.org/2000/svg">
<path d="M34.5725 33.6777L29.1535 28.2587C30.6988 26.4816 31.4938 24.1739 31.3708 21.8221C31.2478 19.4703 30.2165 17.2581 28.4943 15.6519C26.7721 14.0456 24.4935 13.1708 22.1388 13.2118C19.7842 13.2528 17.5374 14.2065 15.8722 15.8717C14.207 17.537 13.2533 19.7837 13.2123 22.1384C13.1713 24.493 14.0461 26.7716 15.6524 28.4938C17.2586 30.216 19.4708 31.2473 21.8226 31.3703C24.1744 31.4933 26.4821 30.6984 28.2592 29.1531L33.6782 34.572C33.7981 34.6838 33.9568 34.7447 34.1207 34.7418C34.2847 34.7389 34.4411 34.6725 34.557 34.5565C34.673 34.4406 34.7394 34.2842 34.7423 34.1202C34.7452 33.9563 34.6843 33.7976 34.5725 33.6777ZM14.5082 22.3124C14.5082 20.7687 14.9659 19.2598 15.8235 17.9763C16.6811 16.6928 17.9 15.6925 19.3261 15.1018C20.7522 14.511 22.3215 14.3565 23.8355 14.6576C25.3494 14.9588 26.7401 15.7021 27.8316 16.7936C28.9231 17.8851 29.6664 19.2758 29.9676 20.7897C30.2687 22.3037 30.1142 23.873 29.5234 25.2991C28.9327 26.7252 27.9324 27.9441 26.6489 28.8017C25.3654 29.6593 23.8565 30.117 22.3128 30.117C20.2437 30.1145 18.26 29.2914 16.7969 27.8283C15.3337 26.3652 14.5107 24.3815 14.5082 22.3124Z" fill="black"/>
</svg>
